<?xml version="1.0" encoding="UTF-8" standalone="no"?>
<!-- Created with Inkscape (http://www.inkscape.org/) -->

<svg
   width="180mm"
   height="180mm"
   viewBox="0 0 180 180"
   version="1.1"
   id="svg1"
   inkscape:version="1.3 (0e150ed6c4, 2023-07-21)"
   sodipodi:docname="SH_OP-favicon.svg"
   xmlns:inkscape="http://www.inkscape.org/namespaces/inkscape"
   xmlns:sodipodi="http://sodipodi.sourceforge.net/DTD/sodipodi-0.dtd"
   xmlns="http://www.w3.org/2000/svg"
   xmlns:svg="http://www.w3.org/2000/svg">
  <sodipodi:namedview
     id="namedview1"
     pagecolor="#ffffff"
     bordercolor="#666666"
     borderopacity="1.0"
     inkscape:showpageshadow="2"
     inkscape:pageopacity="0.0"
     inkscape:pagecheckerboard="0"
     inkscape:deskcolor="#d1d1d1"
     inkscape:document-units="mm"
     inkscape:zoom="0.38303168"
     inkscape:cx="412.49852"
     inkscape:cy="851.10454"
     inkscape:window-width="1918"
     inkscape:window-height="1030"
     inkscape:window-x="0"
     inkscape:window-y="24"
     inkscape:window-maximized="0"
     inkscape:current-layer="svg1" />
  <defs
     id="defs1">
    <mask
       maskUnits="userSpaceOnUse"
       id="mask28">
      <g
         id="g29"
         transform="matrix(0,-3.7795276,3.7795276,0,-354.74706,748.88758)">
        <circle
           cx="188.31641"
           cy="-103.68692"
           r="94.456245"
           fill="#c4c4c4"
           id="circle28"
           style="stroke-width:0.264583"
           transform="rotate(90)" />
      </g>
    </mask>
    <mask
       maskUnits="userSpaceOnUse"
       id="mask29">
      <g
         id="g30"
         transform="matrix(0,-3.7795276,3.7795276,0,-354.74706,748.88758)">
        <circle
           cx="188.31641"
           cy="-103.68692"
           r="94.456245"
           fill="#c4c4c4"
           id="circle29"
           style="stroke-width:0.264583"
           transform="rotate(90)" />
      </g>
    </mask>
    <mask
       maskUnits="userSpaceOnUse"
       id="mask30">
      <g
         id="g31"
         transform="matrix(0,-3.7795276,3.7795276,0,-354.74706,748.88758)">
        <circle
           cx="188.31641"
           cy="-103.68692"
           r="94.456245"
           fill="#c4c4c4"
           id="circle30"
           style="stroke-width:0.264583"
           transform="rotate(90)" />
      </g>
    </mask>
    <mask
       maskUnits="userSpaceOnUse"
       id="mask31">
      <g
         id="g32"
         transform="matrix(0,-3.7795276,3.7795276,0,-354.74706,748.88758)">
        <circle
           cx="188.31641"
           cy="-103.68692"
           r="94.456245"
           fill="#c4c4c4"
           id="circle31"
           style="stroke-width:0.264583"
           transform="rotate(90)" />
      </g>
    </mask>
    <mask
       maskUnits="userSpaceOnUse"
       id="mask32">
      <g
         id="g33"
         transform="matrix(0,-3.7795276,3.7795276,0,-354.74706,748.88758)">
        <circle
           cx="188.31641"
           cy="-103.68692"
           r="94.456245"
           fill="#c4c4c4"
           id="circle32"
           style="stroke-width:0.264583"
           transform="rotate(90)" />
      </g>
    </mask>
    <mask
       maskUnits="userSpaceOnUse"
       id="mask33">
      <g
         id="g34"
         transform="matrix(0,-3.7795276,3.7795276,0,-354.74706,748.88758)">
        <circle
           cx="188.31641"
           cy="-103.68692"
           r="94.456245"
           fill="#c4c4c4"
           id="circle33"
           style="stroke-width:0.264583"
           transform="rotate(90)" />
      </g>
    </mask>
    <mask
       maskUnits="userSpaceOnUse"
       id="mask34">
      <g
         id="g35"
         transform="matrix(0,-3.7795276,3.7795276,0,-354.74706,748.88758)">
        <circle
           cx="188.31641"
           cy="-103.68692"
           r="94.456245"
           fill="#c4c4c4"
           id="circle34"
           style="stroke-width:0.264583"
           transform="rotate(90)" />
      </g>
    </mask>
    <mask
       maskUnits="userSpaceOnUse"
       id="mask35">
      <g
         id="g36"
         transform="matrix(0,-3.7795276,3.7795276,0,-354.74706,748.88758)">
        <circle
           cx="188.31641"
           cy="-103.68692"
           r="94.456245"
           fill="#c4c4c4"
           id="circle35"
           style="stroke-width:0.264583"
           transform="rotate(90)" />
      </g>
    </mask>
    <mask
       maskUnits="userSpaceOnUse"
       id="mask36">
      <g
         id="g37"
         transform="matrix(0,-3.7795276,3.7795276,0,-354.74706,748.88758)">
        <circle
           cx="188.31641"
           cy="-103.68692"
           r="94.456245"
           fill="#c4c4c4"
           id="circle36"
           style="stroke-width:0.264583"
           transform="rotate(90)" />
      </g>
    </mask>
    <mask
       maskUnits="userSpaceOnUse"
       id="mask37">
      <g
         id="g38"
         transform="matrix(0,-3.7795276,3.7795276,0,-354.74706,748.88758)">
        <circle
           cx="188.31641"
           cy="-103.68692"
           r="94.456245"
           fill="#c4c4c4"
           id="circle37"
           style="stroke-width:0.264583"
           transform="rotate(90)" />
      </g>
    </mask>
    <mask
       maskUnits="userSpaceOnUse"
       id="mask38">
      <g
         id="g39"
         transform="matrix(0,-3.7795276,3.7795276,0,-354.74706,748.88758)">
        <circle
           cx="188.31641"
           cy="-103.68692"
           r="94.456245"
           fill="#c4c4c4"
           id="circle38"
           style="stroke-width:0.264583"
           transform="rotate(90)" />
      </g>
    </mask>
    <mask
       maskUnits="userSpaceOnUse"
       id="mask39">
      <g
         id="g40"
         transform="matrix(0,-3.7795276,3.7795276,0,-354.74706,748.88758)">
        <circle
           cx="188.31641"
           cy="-103.68692"
           r="94.456245"
           fill="#c4c4c4"
           id="circle39"
           style="stroke-width:0.264583"
           transform="rotate(90)" />
      </g>
    </mask>
    <mask
       maskUnits="userSpaceOnUse"
       id="mask40">
      <g
         id="g41"
         transform="matrix(0,-3.7795276,3.7795276,0,-354.74706,748.88758)">
        <circle
           cx="188.31641"
           cy="-103.68692"
           r="94.456245"
           fill="#c4c4c4"
           id="circle40"
           style="stroke-width:0.264583"
           transform="rotate(90)" />
      </g>
    </mask>
    <mask
       maskUnits="userSpaceOnUse"
       id="mask41">
      <g
         id="g42"
         transform="matrix(0,-3.7795276,3.7795276,0,-354.74706,748.88758)">
        <circle
           cx="188.31641"
           cy="-103.68692"
           r="94.456245"
           fill="#c4c4c4"
           id="circle41"
           style="stroke-width:0.264583"
           transform="rotate(90)" />
      </g>
    </mask>
    <mask
       maskUnits="userSpaceOnUse"
       id="mask42">
      <g
         id="g43"
         transform="matrix(0,-3.7795276,3.7795276,0,-354.74706,748.88758)">
        <circle
           cx="188.31641"
           cy="-103.68692"
           r="94.456245"
           fill="#c4c4c4"
           id="circle42"
           style="stroke-width:0.264583"
           transform="rotate(90)" />
      </g>
    </mask>
    <mask
       maskUnits="userSpaceOnUse"
       id="mask43">
      <g
         id="g44"
         transform="matrix(0,-3.7795276,3.7795276,0,-354.74706,748.88758)">
        <circle
           cx="188.31641"
           cy="-103.68692"
           r="94.456245"
           fill="#c4c4c4"
           id="circle43"
           style="stroke-width:0.264583"
           transform="rotate(90)" />
      </g>
    </mask>
    <mask
       maskUnits="userSpaceOnUse"
       id="mask44">
      <g
         id="g45"
         transform="matrix(0,-3.7795276,3.7795276,0,-354.74706,748.88758)">
        <circle
           cx="188.31641"
           cy="-103.68692"
           r="94.456245"
           fill="#c4c4c4"
           id="circle44"
           style="stroke-width:0.264583"
           transform="rotate(90)" />
      </g>
    </mask>
    <mask
       maskUnits="userSpaceOnUse"
       id="mask45">
      <g
         id="g46"
         transform="matrix(0,-3.7795276,3.7795276,0,-354.74706,748.88758)">
        <circle
           cx="188.31641"
           cy="-103.68692"
           r="94.456245"
           fill="#c4c4c4"
           id="circle45"
           style="stroke-width:0.264583"
           transform="rotate(90)" />
      </g>
    </mask>
    <mask
       maskUnits="userSpaceOnUse"
       id="mask46">
      <g
         id="g47"
         transform="matrix(0,-3.7795276,3.7795276,0,-354.74706,748.88758)">
        <circle
           cx="188.31641"
           cy="-103.68692"
           r="94.456245"
           fill="#c4c4c4"
           id="circle46"
           style="stroke-width:0.264583"
           transform="rotate(90)" />
      </g>
    </mask>
    <mask
       maskUnits="userSpaceOnUse"
       id="mask47">
      <g
         id="g48"
         transform="matrix(0,-3.7795276,3.7795276,0,-354.74706,748.88758)">
        <circle
           cx="188.31641"
           cy="-103.68692"
           r="94.456245"
           fill="#c4c4c4"
           id="circle47"
           style="stroke-width:0.264583"
           transform="rotate(90)" />
      </g>
    </mask>
    <mask
       maskUnits="userSpaceOnUse"
       id="mask48">
      <g
         id="g49"
         transform="matrix(0,-3.7795276,3.7795276,0,-354.74706,748.88758)">
        <circle
           cx="188.31641"
           cy="-103.68692"
           r="94.456245"
           fill="#c4c4c4"
           id="circle48"
           style="stroke-width:0.264583"
           transform="rotate(90)" />
      </g>
    </mask>
    <mask
       maskUnits="userSpaceOnUse"
       id="mask49">
      <g
         id="g50"
         transform="matrix(0,-3.7795276,3.7795276,0,-354.74706,748.88758)">
        <circle
           cx="188.31641"
           cy="-103.68692"
           r="94.456245"
           fill="#c4c4c4"
           id="circle49"
           style="stroke-width:0.264583"
           transform="rotate(90)" />
      </g>
    </mask>
    <mask
       maskUnits="userSpaceOnUse"
       id="mask50">
      <g
         id="g51"
         transform="matrix(0,-3.7795276,3.7795276,0,-354.74706,748.88758)">
        <circle
           cx="188.31641"
           cy="-103.68692"
           r="94.456245"
           fill="#c4c4c4"
           id="circle50"
           style="stroke-width:0.264583"
           transform="rotate(90)" />
      </g>
    </mask>
    <mask
       maskUnits="userSpaceOnUse"
       id="mask51">
      <g
         id="g52"
         transform="matrix(0,-3.7795276,3.7795276,0,-354.74706,748.88758)">
        <circle
           cx="188.31641"
           cy="-103.68692"
           r="94.456245"
           fill="#c4c4c4"
           id="circle51"
           style="stroke-width:0.264583"
           transform="rotate(90)" />
      </g>
    </mask>
    <mask
       maskUnits="userSpaceOnUse"
       id="mask52">
      <g
         id="g53"
         transform="matrix(0,-3.7795276,3.7795276,0,-354.74706,748.88758)">
        <circle
           cx="188.31641"
           cy="-103.68692"
           r="94.456245"
           fill="#c4c4c4"
           id="circle52"
           style="stroke-width:0.264583"
           transform="rotate(90)" />
      </g>
    </mask>
    <mask
       maskUnits="userSpaceOnUse"
       id="mask53">
      <g
         id="g54"
         transform="matrix(0,-3.7795276,3.7795276,0,-354.74706,748.88758)">
        <circle
           cx="188.31641"
           cy="-103.68692"
           r="94.456245"
           fill="#c4c4c4"
           id="circle53"
           style="stroke-width:0.264583"
           transform="rotate(90)" />
      </g>
    </mask>
  </defs>
  <g
     inkscape:groupmode="layer"
     id="layer6"
     inkscape:label="ShutterLogo"
     style="opacity:1;mix-blend-mode:normal">
    <g
       id="g60"
       transform="matrix(21.761654,0,0,21.953029,-3972.862,-1208.1484)">
      <path
         fill-rule="evenodd"
         clip-rule="evenodd"
         d="m 182.5625,61.859892 h 8.27143 v 1.372765 l -8.27143,-2.7e-5 z"
         fill="white"
         id="path7-3"
         style="fill:#000000;stroke-width:0.264583" />
      <path
         fill-rule="evenodd"
         clip-rule="evenodd"
         d="m 182.5625,60.515624 h 8.27143 v 1.098206 h -8.27143 z"
         fill="white"
         id="path8-7"
         style="fill:#000000;stroke-width:0.264583" />
      <path
         fill-rule="evenodd"
         clip-rule="evenodd"
         d="m 182.5625,59.289174 h 8.27143 v 0.926598 h -8.27143 z"
         fill="white"
         id="path9-4"
         style="fill:#000000;stroke-width:0.264583" />
      <path
         fill-rule="evenodd"
         clip-rule="evenodd"
         d="m 182.5625,58.013565 h 8.27143 v 0.720699 l -8.27143,-2.7e-5 z"
         fill="white"
         id="path10-5"
         style="fill:#000000;stroke-width:0.264583" />
      <path
         fill-rule="evenodd"
         clip-rule="evenodd"
         d="m 182.5625,56.652138 h 8.27143 v 0.549103 h -8.27143 z"
         fill="white"
         id="path11-2"
         style="fill:#000000;stroke-width:0.264583" />
      <path
         fill-rule="evenodd"
         clip-rule="evenodd"
         d="m 182.5625,55.033333 h 8.27143 v 0.274553 l -8.27143,-3e-6 z"
         fill="white"
         id="path12-5"
         style="fill:#000000;stroke-width:0.264583" />
    </g>
  </g>
  <g
     inkscape:label="OptimismCircle"
     inkscape:groupmode="layer"
     id="layer1"
     style="opacity:1;mix-blend-mode:luminosity">
    <ellipse
       style="fill:#ff0420;fill-opacity:1;stroke:#000000;stroke-width:0.202423;stroke-linecap:square;stroke-linejoin:round;stroke-dasharray:1.73506, 1.73506;stroke-opacity:1"
       id="path1"
       cx="89.999962"
       cy="90.00106"
       rx="89.898827"
       ry="89.899918" />
  </g>
  <g
     inkscape:groupmode="layer"
     id="layer5"
     inkscape:label="Text">
    <g
       id="g8"
       transform="matrix(2.5,0,0,2.5,40.085748,99.767856)">
      <g
         id="g57">
        <path
           d="M 7.57408,20 C 5.34861,20 3.52522,19.4815 2.10391,18.4444 0.701303,17.3889 0,15.8889 0,13.9444 0,13.537 0.0467535,13.037 0.140261,12.4444 0.383379,11.1111 0.729356,9.50926 1.17819,7.63889 2.44989,2.5463 5.73199,0 11.0245,0 c 1.44,0 2.7304,0.240741 3.8712,0.722223 1.1408,0.462967 2.0384,1.166667 2.693,2.111107 0.6545,0.92593 0.9818,2.03704 0.9818,3.33334 0,0.38889 -0.0467,0.87963 -0.1402,1.47222 -0.2806,1.64815 -0.6172,3.25001 -1.0099,4.80551 -0.6546,2.5371 -1.786,4.4352 -3.3943,5.6945 C 12.4177,19.3796 10.2671,20 7.57408,20 Z m 0.39273,-4 c 1.04728,0 1.93559,-0.3056 2.66499,-0.9167 0.748,-0.6111 1.281,-1.5463 1.5989,-2.8055 C 12.6609,10.537 12.9881,9.01852 13.2126,7.72222 13.2874,7.33333 13.3248,6.93518 13.3248,6.52778 13.3248,4.84259 12.4364,4 10.6598,4 9.61253,4 8.71486,4.30556 7.96681,4.91667 7.23745,5.52778 6.71381,6.46296 6.39589,7.72222 6.05926,8.96296 5.72264,10.4815 5.38601,12.2778 5.3112,12.6481 5.2738,13.037 5.2738,13.4444 5.2738,15.1481 6.17147,16 7.96681,16 Z"
           fill="#FF0420"
           id="path1-2"
           style="fill:#ffffff" />
        <path
           d="m 21.417,19.7222 c -0.2058,0 -0.3647,-0.0648 -0.4769,-0.1944 -0.0935,-0.1482 -0.1216,-0.3148 -0.0842,-0.5 L 24.7271,0.972223 c 0.0374,-0.203705 0.1403,-0.370371 0.3086,-0.5 0.1683,-0.12963 0.346,-0.194445 0.533,-0.194445 h 7.4618 c 2.0759,0 3.7403,0.425925 4.9933,1.277782 1.2717,0.85185 1.9076,2.08333 1.9076,3.69444 0,0.46296 -0.0561,0.94444 -0.1683,1.44444 -0.4676,2.12963 -1.412,3.70366 -2.8333,4.72226 -1.4026,1.0185 -3.3289,1.5277 -5.7788,1.5277 h -3.787 l -1.2904,6.0834 c -0.0374,0.2037 -0.1403,0.3703 -0.3086,0.5 -0.1683,0.1296 -0.3459,0.1944 -0.533,0.1944 z M 31.3474,9.11111 c 0.7855,0 1.4681,-0.21296 2.0478,-0.63889 0.5985,-0.42592 0.9912,-1.03704 1.1782,-1.83333 0.0561,-0.31482 0.0842,-0.59259 0.0842,-0.83334 0,-0.53703 -0.159,-0.94444 -0.4769,-1.22222 -0.3179,-0.29629 -0.8603,-0.44444 -1.627,-0.44444 h -3.3663 l -1.066,4.97222 z"
           fill="#FF0420"
           id="path2"
           style="fill:#ffffff" />
      </g>
    </g>
    <g
       inkscape:groupmode="layer"
       id="layer4"
       inkscape:label="sh"
       transform="matrix(8.466238,0,0,8.466238,-1031.9487,-722.18844)">
      <g
         id="g59">
        <path
           d="m 129.909,94.928639 c -0.62863,0 -1.14806,-0.138959 -1.55832,-0.416877 -0.41026,-0.277919 -0.65842,-0.698103 -0.74443,-1.260581 l 0.95287,-0.228283 c 0.0728,0.410263 0.23159,0.694796 0.47643,0.853599 0.25144,0.152215 0.54261,0.228309 0.87345,0.228309 0.32424,0 0.5724,-0.05956 0.74443,-0.178673 0.17867,-0.12573 0.26799,-0.291148 0.26799,-0.496279 0,-0.198517 -0.0827,-0.344091 -0.24812,-0.436748 -0.16545,-0.09263 -0.40696,-0.168725 -0.72459,-0.228282 l -0.3474,-0.05956 c -0.33086,-0.05956 -0.63193,-0.145574 -0.90323,-0.258075 -0.27131,-0.112474 -0.48636,-0.26797 -0.64519,-0.466486 -0.1588,-0.198517 -0.2382,-0.453285 -0.2382,-0.764302 0,-0.46318 0.17203,-0.820526 0.51612,-1.07196 0.34409,-0.258074 0.80068,-0.387112 1.36975,-0.387112 0.54922,0 0.9992,0.12573 1.3499,0.37719 0.35732,0.244819 0.58894,0.578988 0.6948,1.00248 l -0.95287,0.267997 c -0.0596,-0.297762 -0.18526,-0.506201 -0.37717,-0.625317 -0.1919,-0.12573 -0.4301,-0.188595 -0.71466,-0.188595 -0.27792,0 -0.49628,0.05294 -0.65508,0.15883 -0.15883,0.09924 -0.23824,0.241512 -0.23824,0.426799 0,0.198517 0.0761,0.344091 0.22831,0.436721 0.15881,0.09266 0.37055,0.162137 0.63524,0.208439 l 0.3474,0.05956 c 0.3507,0.05956 0.66834,0.145574 0.95287,0.258075 0.29115,0.105886 0.52276,0.258074 0.6948,0.456591 0.17205,0.191876 0.25807,0.453258 0.25807,0.784119 0,0.496279 -0.18529,0.880084 -0.55584,1.151387 -0.36396,0.26469 -0.85031,0.397034 -1.45909,0.397034 z"
           fill="white"
           id="path1-7"
           style="fill:#ffffff;stroke:#ffffff;stroke-width:0.26458;stroke-dasharray:none;stroke-opacity:1" />
        <path
           d="m 132.7991,94.78968 v -6.948014 h 1.02235 v 2.74942 h 0.1588 c 0.0926,-0.185261 0.25477,-0.360627 0.48636,-0.526044 0.23161,-0.165444 0.58232,-0.248153 1.05214,-0.248153 0.37055,0 0.6981,0.08271 0.98264,0.248153 0.29114,0.165417 0.51945,0.400314 0.68487,0.704718 0.16544,0.304376 0.24815,0.66503 0.24815,1.081907 v 2.938013 h -1.02235 v -2.858611 c 0,-0.423492 -0.10588,-0.73451 -0.31763,-0.933027 -0.21175,-0.205131 -0.50289,-0.307684 -0.87347,-0.307684 -0.42349,0 -0.76427,0.138959 -1.02235,0.416878 -0.25143,0.277918 -0.37716,0.681566 -0.37716,1.210945 v 2.471499 z"
           fill="white"
           id="path2-6"
           style="fill:#ffffff;stroke:#ffffff;stroke-width:0.26458;stroke-dasharray:none;stroke-opacity:1" />
      </g>
    </g>
  </g>
</svg>
